# xmcd CD database file
#
# Track frame offsets:
#	150
#	15562
#	35100
#	53662
#	67000
#	76250
#	87925
#	105912
#	130012
#	144525
#	163862
#	178100
#	193800
#	214087
#	224425
#
# Disc length: 3358 seconds
#
# Revision: 1
# Processed by: cddbd v1.5.2PL0 Copyright (c) Steve Scherf et al.
# Submitted via: CDex 1.70beta2
#
DISCID=d50d1c0f
DTITLE=Various Artist - Amerika start edition 1995
DYEAR=1995
DGENRE=Pop, Rock
TTITLE0=Electric Light Orchestra - Calling Amerika
TTITLE1=The Hooters -  500 Miles
TTITLE2=Dave Loggins - Please Come To Boston
TTITLE3=Scott McKenzie - San Francisco
TTITLE4=The Byrds - Ballad Of Easy Rider
TTITLE5=Johnny Cash - Ring Of Fire
TTITLE6=Peyote - Shaman's Call
TTITLE7=Pasadenas - Riding On A Train
TTITLE8=Mahalia Jackson - Put A Little Love In Your Heart
TTITLE9=Mother's Finest - My Babylove
TTITLE10=Jimmy Cliff - I Can See Clearly Now
TTITLE11=Peter Tosh - Get Up, Stand Up
TTITLE12=Santana - Samba Pa Ti
TTITLE13=Santana - Carnaval
TTITLE14=Grupo Savia Andina - El Condor Pasa
EXTD=YEAR: 1995
EXTT0=
EXTT1=
EXTT2=
EXTT3=
EXTT4=
EXTT5=
EXTT6=
EXTT7=
EXTT8=
EXTT9=
EXTT10=
EXTT11=
EXTT12=
EXTT13=
EXTT14=
PLAYORDER=
